<svg width="1024" height="768" viewBox="0 0 1024 768" fill="none" xmlns="http://www.w3.org/2000/svg">
<path d="M234.208 495.512C236.239 495.512 237.779 496.197 238.825 497.567C239.872 498.937 240.396 500.659 240.396 502.733C240.396 503.704 240.279 504.712 240.044 505.759C239.81 506.805 239.435 507.842 238.919 508.87C238.419 509.897 237.818 510.82 237.114 511.638C236.411 512.456 235.544 513.122 234.513 513.636C233.482 514.131 232.364 514.378 231.161 514.378C230.88 514.378 230.325 514.35 229.497 514.293C228.669 514.255 227.989 514.236 227.458 514.236L224.857 514.378C224.841 514.359 224.833 514.283 224.833 514.15C224.833 513.788 224.872 513.608 224.95 513.608C225.122 513.608 225.411 513.532 225.818 513.379C226.224 513.227 226.458 513.065 226.521 512.894C226.74 512.342 226.943 511.457 227.13 510.24L228.818 499.622C229.021 498.271 229.107 497.386 229.075 496.968C229.06 496.815 228.88 496.663 228.536 496.511C228.193 496.359 227.935 496.283 227.763 496.283C227.732 496.283 227.716 496.245 227.716 496.169C227.716 495.864 227.771 495.645 227.88 495.512C228.599 495.55 229.435 495.569 230.388 495.569C230.935 495.569 231.638 495.56 232.497 495.541C233.357 495.522 233.927 495.512 234.208 495.512ZM234.161 496.768C232.489 496.768 231.552 496.92 231.349 497.225C231.099 497.605 230.888 498.357 230.716 499.479L229.005 510.325C228.958 510.592 228.935 511.001 228.935 511.553C228.935 512.085 228.95 512.399 228.982 512.494C229.122 512.875 230.029 513.065 231.7 513.065C233.013 513.065 234.185 512.552 235.216 511.524C236.247 510.478 237.021 509.155 237.536 507.557C238.068 505.958 238.333 504.265 238.333 502.476C238.333 500.802 237.989 499.432 237.302 498.366C236.614 497.301 235.568 496.768 234.161 496.768Z" fill="#18326B"/>
<path d="M250.521 501.877C251.239 501.877 251.755 502.105 252.068 502.562C252.396 502.999 252.56 503.485 252.56 504.017C252.56 504.855 252.208 505.682 251.505 506.501C250.802 507.319 250.028 507.956 249.185 508.413C248.357 508.851 247.685 509.069 247.169 509.069C247.107 509.069 247.075 509.402 247.075 510.068C247.075 510.925 247.208 511.581 247.474 512.038C247.755 512.475 248.13 512.694 248.599 512.694C248.724 512.694 248.841 512.675 248.95 512.637C249.075 512.599 249.193 512.551 249.302 512.494C249.411 512.437 249.521 512.38 249.63 512.323C249.739 512.247 249.841 512.161 249.935 512.066C250.028 511.971 250.114 511.886 250.193 511.809C250.286 511.733 250.364 511.657 250.427 511.581C250.505 511.486 250.56 511.41 250.591 511.353C250.638 511.296 250.677 511.248 250.708 511.21L250.778 511.124C250.81 511.124 250.864 511.22 250.943 511.41C251.036 511.581 251.083 511.705 251.083 511.781C250.864 512.238 250.427 512.799 249.771 513.465C249.114 514.131 248.466 514.464 247.825 514.464C247.013 514.464 246.388 514.083 245.95 513.322C245.528 512.542 245.318 511.476 245.318 510.125C245.318 508.299 245.888 506.472 247.028 504.645C248.169 502.8 249.333 501.877 250.521 501.877ZM250.286 503.047C249.552 503.047 248.857 503.694 248.2 504.988C247.56 506.263 247.239 507.252 247.239 507.956C247.239 508.032 247.271 508.07 247.333 508.07C247.896 508.07 248.622 507.614 249.513 506.7C250.419 505.787 250.872 504.855 250.872 503.903C250.872 503.332 250.677 503.047 250.286 503.047Z" fill="#18326B"/>
<path d="M260.411 501.877C260.661 501.877 260.857 502.02 260.997 502.305C261.138 502.571 261.208 502.923 261.208 503.361C261.208 503.761 261.161 504.265 261.068 504.874L260.365 509.241C260.24 510.154 260.177 510.753 260.177 511.039C260.177 511.572 260.247 511.952 260.388 512.18C260.529 512.409 260.779 512.523 261.138 512.523C261.857 512.523 262.693 511.657 263.646 509.926C264.615 508.175 265.099 506.691 265.099 505.473C265.099 505.074 264.982 504.645 264.747 504.189C264.529 503.732 264.419 503.39 264.419 503.161C264.419 502.819 264.513 502.524 264.7 502.276C264.888 502.01 265.115 501.877 265.38 501.877C265.677 501.877 265.927 501.953 266.13 502.105C266.349 502.6 266.458 503.152 266.458 503.761C266.458 505.34 266.075 506.976 265.31 508.67C264.56 510.363 263.7 511.724 262.732 512.751C261.763 513.779 260.935 514.293 260.247 514.293C259.716 514.293 259.294 514.064 258.982 513.608C258.669 513.132 258.513 512.523 258.513 511.781C258.513 511.248 258.544 510.829 258.607 510.525L259.404 505.502C259.497 505.102 259.544 504.722 259.544 504.36C259.544 503.884 259.466 503.646 259.31 503.646C259.247 503.646 259.161 503.694 259.052 503.789C258.943 503.865 258.825 503.97 258.7 504.103C258.591 504.236 258.49 504.36 258.396 504.474C258.302 504.588 258.216 504.702 258.138 504.817L258.021 504.988C257.99 504.988 257.927 504.902 257.833 504.731C257.755 504.541 257.716 504.408 257.716 504.331C257.904 503.951 258.294 503.447 258.888 502.819C259.497 502.191 260.005 501.877 260.411 501.877Z" fill="#18326B"/>
<path d="M276.208 501.877C276.927 501.877 277.443 502.105 277.755 502.562C278.083 502.999 278.247 503.485 278.247 504.017C278.247 504.855 277.896 505.682 277.193 506.501C276.49 507.319 275.716 507.956 274.872 508.413C274.044 508.851 273.372 509.069 272.857 509.069C272.794 509.069 272.763 509.402 272.763 510.068C272.763 510.925 272.896 511.581 273.161 512.038C273.443 512.475 273.818 512.694 274.286 512.694C274.411 512.694 274.529 512.675 274.638 512.637C274.763 512.599 274.88 512.551 274.99 512.494C275.099 512.437 275.208 512.38 275.318 512.323C275.427 512.247 275.529 512.161 275.622 512.066C275.716 511.971 275.802 511.886 275.88 511.809C275.974 511.733 276.052 511.657 276.115 511.581C276.193 511.486 276.247 511.41 276.279 511.353C276.325 511.296 276.364 511.248 276.396 511.21L276.466 511.124C276.497 511.124 276.552 511.22 276.63 511.41C276.724 511.581 276.771 511.705 276.771 511.781C276.552 512.238 276.115 512.799 275.458 513.465C274.802 514.131 274.154 514.464 273.513 514.464C272.7 514.464 272.075 514.083 271.638 513.322C271.216 512.542 271.005 511.476 271.005 510.125C271.005 508.299 271.575 506.472 272.716 504.645C273.857 502.8 275.021 501.877 276.208 501.877ZM275.974 503.047C275.24 503.047 274.544 503.694 273.888 504.988C273.247 506.263 272.927 507.252 272.927 507.956C272.927 508.032 272.958 508.07 273.021 508.07C273.583 508.07 274.31 507.614 275.2 506.7C276.107 505.787 276.56 504.855 276.56 503.903C276.56 503.332 276.365 503.047 275.974 503.047Z" fill="#18326B"/>
<path d="M283.732 511.467L285.935 497.624C285.982 497.339 286.005 497.072 286.005 496.825C286.005 496.463 285.528 496.283 284.575 496.283C284.528 496.283 284.505 496.226 284.505 496.111C284.505 495.883 284.568 495.693 284.693 495.541C285.755 495.426 286.755 495.16 287.693 494.741C287.786 494.799 287.833 494.979 287.833 495.284C287.833 495.512 287.732 496.226 287.529 497.424L285.302 511.267C285.255 511.496 285.232 511.733 285.232 511.981C285.232 512.456 285.31 512.694 285.466 512.694C285.56 512.694 285.669 512.647 285.794 512.552C285.935 512.437 286.075 512.304 286.216 512.152C286.357 512 286.482 511.857 286.591 511.724C286.7 511.572 286.794 511.438 286.872 511.324C286.966 511.191 287.013 511.124 287.013 511.124C287.06 511.124 287.122 511.22 287.2 511.41C287.279 511.581 287.318 511.705 287.318 511.781C287.115 512.2 286.693 512.751 286.052 513.436C285.411 514.121 284.849 514.464 284.365 514.464C284.13 514.464 283.935 514.331 283.779 514.064C283.638 513.779 283.568 513.417 283.568 512.98C283.568 512.656 283.622 512.152 283.732 511.467Z" fill="#18326B"/>
<path d="M297.583 503.047C296.802 503.047 296.091 503.799 295.45 505.302C294.81 506.786 294.49 508.28 294.49 509.783C294.49 510.887 294.63 511.743 294.911 512.352C295.208 512.961 295.575 513.265 296.013 513.265C296.794 513.265 297.482 512.523 298.075 511.039C298.685 509.536 298.99 508.023 298.99 506.501C298.99 505.378 298.865 504.522 298.615 503.932C298.365 503.342 298.021 503.047 297.583 503.047ZM297.865 501.877C298.786 501.877 299.497 502.267 299.997 503.047C300.513 503.827 300.771 504.902 300.771 506.272C300.771 508.232 300.2 510.087 299.06 511.838C297.935 513.569 296.779 514.435 295.591 514.435C294.654 514.435 293.935 514.064 293.435 513.322C292.95 512.58 292.708 511.524 292.708 510.154C292.708 508.175 293.271 506.301 294.396 504.531C295.521 502.762 296.677 501.877 297.865 501.877Z" fill="#18326B"/>
<path d="M311.857 503.532C310.935 503.532 310.185 504.037 309.607 505.045L308.599 511.353C308.536 511.79 308.568 512.19 308.693 512.552C308.818 512.913 309.091 513.094 309.513 513.094C310.419 513.094 311.278 512.371 312.091 510.925C312.903 509.479 313.31 507.937 313.31 506.301C313.31 504.455 312.825 503.532 311.857 503.532ZM312.794 501.877C313.513 501.877 314.068 502.257 314.458 503.019C314.849 503.761 315.044 504.664 315.044 505.73C315.044 507.043 314.7 508.394 314.013 509.783C313.325 511.153 312.513 512.266 311.575 513.122C310.638 513.979 309.802 514.407 309.068 514.407C308.677 514.407 308.364 514.331 308.13 514.178L307.474 518.431C307.427 518.679 307.404 518.945 307.404 519.23C307.404 519.592 307.513 519.811 307.732 519.887C307.935 519.944 308.302 519.972 308.833 519.972C308.864 519.972 308.88 520.03 308.88 520.144C308.88 520.429 308.841 520.638 308.763 520.772C308.654 520.772 308.505 520.762 308.318 520.743C308.146 520.743 308.021 520.743 307.943 520.743C306.88 520.743 305.763 520.829 304.591 521C304.544 520.981 304.521 520.905 304.521 520.772C304.521 520.486 304.552 520.286 304.615 520.172C305.036 520.172 305.349 520.02 305.552 519.716C305.724 519.449 305.849 519.04 305.927 518.488L307.779 506.843L306.654 508.213C306.56 508.08 306.513 507.89 306.513 507.642C306.513 507.566 306.536 507.5 306.583 507.443L307.966 505.644L308.575 501.934C308.81 501.858 309.068 501.82 309.349 501.82C309.63 501.82 309.88 501.886 310.099 502.02C309.958 502.819 309.872 503.352 309.841 503.618C310.153 503.275 310.403 503.009 310.591 502.819C310.794 502.629 311.099 502.429 311.505 502.219C311.927 501.991 312.357 501.877 312.794 501.877Z" fill="#18326B"/>
<path d="M325.427 501.877C326.146 501.877 326.661 502.105 326.974 502.562C327.302 502.999 327.466 503.485 327.466 504.017C327.466 504.855 327.114 505.682 326.411 506.501C325.708 507.319 324.935 507.956 324.091 508.413C323.263 508.851 322.591 509.069 322.075 509.069C322.013 509.069 321.982 509.402 321.982 510.068C321.982 510.925 322.114 511.581 322.38 512.038C322.661 512.475 323.036 512.694 323.505 512.694C323.63 512.694 323.747 512.675 323.857 512.637C323.982 512.599 324.099 512.551 324.208 512.494C324.318 512.437 324.427 512.38 324.536 512.323C324.646 512.247 324.747 512.161 324.841 512.066C324.935 511.971 325.021 511.886 325.099 511.809C325.193 511.733 325.271 511.657 325.333 511.581C325.411 511.486 325.466 511.41 325.497 511.353C325.544 511.296 325.583 511.248 325.614 511.21L325.685 511.124C325.716 511.124 325.771 511.22 325.849 511.41C325.943 511.581 325.989 511.705 325.989 511.781C325.771 512.238 325.333 512.799 324.677 513.465C324.021 514.131 323.372 514.464 322.732 514.464C321.919 514.464 321.294 514.083 320.857 513.322C320.435 512.542 320.224 511.476 320.224 510.125C320.224 508.299 320.794 506.472 321.935 504.645C323.075 502.8 324.239 501.877 325.427 501.877ZM325.193 503.047C324.458 503.047 323.763 503.694 323.107 504.988C322.466 506.263 322.146 507.252 322.146 507.956C322.146 508.032 322.177 508.07 322.239 508.07C322.802 508.07 323.528 507.614 324.419 506.7C325.325 505.787 325.778 504.855 325.778 503.903C325.778 503.332 325.583 503.047 325.193 503.047Z" fill="#18326B"/>
<path d="M339.302 514.236C339.302 514.236 338.435 514.283 336.7 514.378C336.685 514.359 336.677 514.283 336.677 514.15C336.677 513.788 336.716 513.608 336.794 513.608C336.966 513.608 337.255 513.531 337.661 513.379C338.068 513.227 338.302 513.065 338.365 512.894C338.583 512.342 338.786 511.457 338.974 510.24L340.661 499.622C340.865 498.271 340.95 497.386 340.919 496.968C340.904 496.815 340.724 496.663 340.38 496.511C340.036 496.359 339.779 496.283 339.607 496.283C339.575 496.283 339.56 496.245 339.56 496.169C339.56 495.864 339.615 495.645 339.724 495.512C340.443 495.55 341.279 495.569 342.232 495.569C342.857 495.569 343.943 495.531 345.49 495.455C347.036 495.379 348.224 495.341 349.052 495.341C349.036 495.607 349.029 495.978 349.029 496.454C349.029 496.777 349.036 497.244 349.052 497.853C349.068 498.461 349.075 498.918 349.075 499.223C348.997 499.318 348.857 499.365 348.654 499.365C348.466 499.365 348.372 499.299 348.372 499.165C348.325 498.1 348.122 497.424 347.763 497.139C347.404 496.854 346.833 496.711 346.052 496.711H344.786C343.677 496.711 343.083 496.835 343.005 497.082C342.833 497.653 342.693 498.29 342.583 498.994L341.833 503.989C341.833 504.046 341.849 504.094 341.88 504.132C341.927 504.151 341.997 504.17 342.091 504.189C342.185 504.189 342.279 504.198 342.372 504.217C342.466 504.217 342.575 504.217 342.7 504.217H343.755C344.786 504.217 345.427 504.132 345.677 503.96C345.927 503.77 346.232 503.18 346.591 502.191C346.638 502.058 346.747 501.991 346.919 501.991C347.107 501.991 347.224 502.039 347.271 502.134L346.404 507.614C346.31 507.69 346.2 507.728 346.075 507.728C345.872 507.728 345.763 507.652 345.747 507.5C345.732 506.986 345.7 506.605 345.654 506.358C345.607 506.092 345.568 505.939 345.536 505.901C345.521 505.844 345.474 505.778 345.396 505.702C345.239 505.549 344.482 505.473 343.122 505.473C342.091 505.473 341.56 505.559 341.529 505.73L340.732 510.639C340.607 511.4 340.544 512.152 340.544 512.894C340.544 513.046 340.677 513.189 340.943 513.322C341.208 513.436 341.474 513.512 341.739 513.551L342.138 513.608C342.169 513.608 342.185 513.684 342.185 513.836C342.185 514.083 342.138 514.264 342.044 514.378C340.591 514.283 339.677 514.236 339.302 514.236Z" fill="#18326B"/>
<path d="M356.13 501.877C356.38 501.877 356.575 502.02 356.716 502.305C356.857 502.571 356.927 502.923 356.927 503.361C356.927 503.875 356.88 504.379 356.786 504.874L355.966 509.583C355.857 510.135 355.802 510.649 355.802 511.124C355.802 511.943 355.95 512.352 356.247 512.352C356.466 512.352 356.779 512.133 357.185 511.695C357.591 511.239 358.013 510.658 358.45 509.954C358.904 509.231 359.325 508.356 359.716 507.328C360.122 506.301 360.404 505.283 360.56 504.274L360.958 502.048C361.161 501.972 361.404 501.934 361.685 501.934C361.966 501.934 362.232 501.972 362.482 502.048L361.029 511.267C360.982 511.495 360.958 511.733 360.958 511.981C360.958 512.456 361.036 512.694 361.193 512.694C361.286 512.694 361.396 512.647 361.521 512.551C361.661 512.437 361.794 512.304 361.919 512.152C362.06 512 362.185 511.857 362.294 511.724C362.404 511.572 362.505 511.438 362.599 511.324L362.74 511.124C362.771 511.124 362.825 511.22 362.904 511.41C362.997 511.581 363.044 511.705 363.044 511.781C362.841 512.199 362.419 512.751 361.779 513.436C361.138 514.121 360.575 514.464 360.091 514.464C359.841 514.464 359.646 514.331 359.505 514.064C359.365 513.779 359.294 513.417 359.294 512.98C359.294 512.675 359.349 512.171 359.458 511.467L359.88 508.841C359.724 509.203 359.404 509.792 358.919 510.611C358.435 511.429 357.825 512.276 357.091 513.151C356.357 514.026 355.755 514.464 355.286 514.464C354.505 514.464 354.115 513.836 354.115 512.58C354.115 511.705 354.224 510.668 354.443 509.469L355.146 505.502C355.224 504.817 355.263 504.436 355.263 504.36C355.263 503.884 355.185 503.646 355.029 503.646C354.966 503.646 354.88 503.694 354.771 503.789C354.661 503.865 354.544 503.97 354.419 504.103C354.31 504.236 354.208 504.36 354.115 504.474C354.021 504.588 353.935 504.702 353.857 504.817C353.779 504.931 353.74 504.988 353.74 504.988C353.708 504.988 353.646 504.902 353.552 504.731C353.474 504.541 353.435 504.408 353.435 504.331C353.622 503.951 354.013 503.447 354.607 502.819C355.216 502.191 355.724 501.877 356.13 501.877Z" fill="#18326B"/>
<path d="M368.669 511.467L370.872 497.624C370.919 497.339 370.943 497.072 370.943 496.825C370.943 496.463 370.466 496.283 369.513 496.283C369.466 496.283 369.443 496.226 369.443 496.111C369.443 495.883 369.505 495.693 369.63 495.541C370.693 495.426 371.693 495.16 372.63 494.741C372.724 494.799 372.771 494.979 372.771 495.284C372.771 495.512 372.669 496.226 372.466 497.424L370.239 511.267C370.193 511.496 370.169 511.733 370.169 511.981C370.169 512.456 370.247 512.694 370.404 512.694C370.497 512.694 370.607 512.647 370.732 512.552C370.872 512.437 371.013 512.304 371.154 512.152C371.294 512 371.419 511.857 371.529 511.724C371.638 511.572 371.732 511.438 371.81 511.324C371.904 511.191 371.95 511.124 371.95 511.124C371.997 511.124 372.06 511.22 372.138 511.41C372.216 511.581 372.255 511.705 372.255 511.781C372.052 512.2 371.63 512.751 370.99 513.436C370.349 514.121 369.786 514.464 369.302 514.464C369.068 514.464 368.872 514.331 368.716 514.064C368.575 513.779 368.505 513.417 368.505 512.98C368.505 512.656 368.56 512.152 368.669 511.467Z" fill="#18326B"/>
<path d="M378.232 511.467L380.435 497.624C380.482 497.339 380.505 497.072 380.505 496.825C380.505 496.463 380.028 496.283 379.075 496.283C379.028 496.283 379.005 496.226 379.005 496.111C379.005 495.883 379.068 495.693 379.193 495.541C380.255 495.426 381.255 495.16 382.193 494.741C382.286 494.799 382.333 494.979 382.333 495.284C382.333 495.512 382.232 496.226 382.029 497.424L379.802 511.267C379.755 511.496 379.732 511.733 379.732 511.981C379.732 512.456 379.81 512.694 379.966 512.694C380.06 512.694 380.169 512.647 380.294 512.552C380.435 512.437 380.575 512.304 380.716 512.152C380.857 512 380.982 511.857 381.091 511.724C381.2 511.572 381.294 511.438 381.372 511.324C381.466 511.191 381.513 511.124 381.513 511.124C381.56 511.124 381.622 511.22 381.7 511.41C381.779 511.581 381.818 511.705 381.818 511.781C381.615 512.2 381.193 512.751 380.552 513.436C379.911 514.121 379.349 514.464 378.865 514.464C378.63 514.464 378.435 514.331 378.279 514.064C378.138 513.779 378.068 513.417 378.068 512.98C378.068 512.656 378.122 512.152 378.232 511.467Z" fill="#18326B"/>
<path d="M399.279 509.383C399.279 508.813 399.091 508.261 398.716 507.728C398.341 507.176 397.888 506.682 397.357 506.244C396.825 505.787 396.286 505.331 395.74 504.874C395.208 504.398 394.755 503.846 394.38 503.218C394.005 502.591 393.818 501.925 393.818 501.221C393.818 499.508 394.325 498.09 395.341 496.968C396.372 495.845 397.615 495.284 399.068 495.284C399.474 495.284 399.997 495.388 400.638 495.598C401.279 495.807 401.763 495.931 402.091 495.969C401.982 497.015 401.88 498.071 401.786 499.137C401.74 499.689 401.7 500.012 401.669 500.107C401.654 500.203 401.622 500.25 401.575 500.25C401.341 500.25 401.161 500.193 401.036 500.079C401.005 500.06 400.99 499.946 400.99 499.736C400.99 498.842 400.747 498.081 400.263 497.453C399.794 496.825 399.247 496.511 398.622 496.511C397.732 496.511 397.013 496.844 396.466 497.51C395.919 498.157 395.646 498.975 395.646 499.965C395.646 500.973 396.029 501.848 396.794 502.591C397.091 502.876 397.599 503.323 398.318 503.932C399.036 504.541 399.552 505.007 399.865 505.331C400.193 505.654 400.513 506.12 400.825 506.729C401.138 507.319 401.294 507.947 401.294 508.613C401.294 509.203 401.177 509.831 400.943 510.497C400.708 511.163 400.372 511.8 399.935 512.409C399.497 512.999 398.919 513.494 398.2 513.893C397.482 514.274 396.693 514.464 395.833 514.464C394.99 514.464 393.747 514.236 392.107 513.779C392.169 512.561 392.2 511.791 392.2 511.467C392.2 511.144 392.193 510.706 392.177 510.154C392.161 509.602 392.154 509.307 392.154 509.269C392.154 509.136 392.302 509.07 392.599 509.07C392.74 509.07 392.888 509.146 393.044 509.298C393.044 509.697 393.075 510.097 393.138 510.497C393.216 510.896 393.349 511.324 393.536 511.781C393.74 512.238 394.052 512.609 394.474 512.894C394.911 513.161 395.435 513.294 396.044 513.294C396.872 513.294 397.615 512.951 398.271 512.266C398.943 511.562 399.279 510.601 399.279 509.383Z" fill="#18326B"/>
<path d="M409.544 498.823C409.591 498.633 409.974 498.538 410.693 498.538C410.88 498.538 411.021 498.547 411.114 498.566L410.528 502.305H412.661C412.739 502.305 412.778 502.429 412.778 502.676C412.778 502.904 412.708 503.18 412.568 503.504H410.341L409.099 511.267C409.052 511.496 409.029 511.733 409.029 511.981C409.029 512.457 409.107 512.694 409.263 512.694C409.357 512.694 409.466 512.647 409.591 512.552C409.732 512.437 409.864 512.304 409.989 512.152C410.13 512 410.255 511.857 410.364 511.724C410.474 511.572 410.575 511.439 410.669 511.324L410.81 511.125C410.841 511.125 410.896 511.22 410.974 511.41C411.068 511.581 411.114 511.705 411.114 511.781C410.911 512.2 410.489 512.751 409.849 513.436C409.208 514.121 408.646 514.464 408.161 514.464C407.911 514.464 407.716 514.331 407.575 514.064C407.435 513.779 407.364 513.417 407.364 512.98C407.364 512.675 407.419 512.171 407.529 511.467L408.794 503.504H407.13C407.083 503.504 407.06 503.399 407.06 503.19C407.06 502.943 407.154 502.648 407.341 502.305H408.982L409.544 498.823Z" fill="#18326B"/>
<path d="M423.068 501.877C423.661 501.877 424.232 502.001 424.779 502.248L423.349 511.267C423.302 511.495 423.279 511.733 423.279 511.981C423.279 512.456 423.357 512.694 423.513 512.694C423.607 512.694 423.716 512.647 423.841 512.551C423.982 512.437 424.115 512.304 424.24 512.152C424.38 512 424.505 511.857 424.615 511.724C424.724 511.572 424.825 511.438 424.919 511.324L425.06 511.124C425.091 511.124 425.146 511.22 425.224 511.41C425.318 511.581 425.365 511.705 425.365 511.781C425.161 512.199 424.74 512.751 424.099 513.436C423.458 514.121 422.896 514.464 422.411 514.464C422.161 514.464 421.966 514.331 421.825 514.064C421.685 513.779 421.615 513.417 421.615 512.98C421.615 512.656 421.669 512.152 421.779 511.467C421.81 511.258 421.833 511.096 421.849 510.982C421.88 510.848 421.896 510.763 421.896 510.725C421.74 511.067 421.56 511.419 421.357 511.781C421.154 512.123 420.896 512.513 420.583 512.951C420.271 513.389 419.935 513.75 419.575 514.036C419.232 514.302 418.904 514.435 418.591 514.435C417.904 514.435 417.357 514.064 416.95 513.322C416.56 512.561 416.365 511.648 416.365 510.582C416.365 509.231 416.693 507.88 417.349 506.529C418.021 505.159 418.88 504.046 419.927 503.19C420.974 502.314 422.021 501.877 423.068 501.877ZM422.083 503.19C421.161 503.19 420.263 503.922 419.388 505.387C418.529 506.834 418.099 508.365 418.099 509.983C418.099 511.847 418.497 512.78 419.294 512.78C419.857 512.78 420.482 512.085 421.169 510.696C421.872 509.307 422.341 507.899 422.575 506.472L423.044 503.561C422.857 503.313 422.536 503.19 422.083 503.19Z" fill="#18326B"/>
<path d="M435.677 501.877C436.411 501.877 437.091 502.2 437.716 502.847C437.763 503.076 437.786 503.266 437.786 503.418C437.786 503.78 437.708 504.075 437.552 504.303C437.411 504.531 437.216 504.645 436.966 504.645C436.716 504.645 436.458 504.379 436.193 503.846C435.927 503.313 435.661 503.047 435.396 503.047C434.724 503.047 434.021 503.713 433.286 505.045C432.568 506.358 432.208 507.899 432.208 509.669C432.208 511.686 432.724 512.694 433.755 512.694C433.88 512.694 433.997 512.675 434.107 512.637C434.232 512.599 434.349 512.551 434.458 512.494C434.568 512.437 434.677 512.38 434.786 512.323C434.896 512.247 434.997 512.161 435.091 512.066C435.185 511.971 435.271 511.886 435.349 511.809C435.443 511.733 435.521 511.657 435.583 511.581C435.661 511.486 435.716 511.41 435.747 511.353C435.794 511.296 435.833 511.248 435.864 511.21L435.935 511.124C435.966 511.124 436.021 511.22 436.099 511.41C436.193 511.581 436.239 511.705 436.239 511.781C436.021 512.238 435.583 512.799 434.927 513.465C434.271 514.131 433.622 514.464 432.982 514.464C432.169 514.464 431.544 514.083 431.107 513.322C430.685 512.542 430.474 511.476 430.474 510.125C430.474 508.299 431.044 506.472 432.185 504.645C433.325 502.8 434.489 501.877 435.677 501.877Z" fill="#18326B"/>
<path d="M449.271 501.877C449.74 501.877 450.146 502.067 450.49 502.448C450.849 502.809 451.029 503.266 451.029 503.818C451.029 505.055 450.575 506.073 449.669 506.872C448.779 507.671 447.63 508.213 446.224 508.499C447.161 510.211 447.872 511.343 448.357 511.895C448.857 512.447 449.279 512.723 449.622 512.723C449.904 512.723 450.169 512.58 450.419 512.295C450.685 512.009 450.88 511.733 451.005 511.467C451.052 511.467 451.122 511.543 451.216 511.695C451.325 511.848 451.38 511.962 451.38 512.038C451.302 512.361 451.013 512.837 450.513 513.465C450.013 514.093 449.536 514.407 449.083 514.407C448.88 514.407 448.677 514.369 448.474 514.293C448.286 514.217 448.091 514.093 447.888 513.922C447.7 513.75 447.521 513.589 447.349 513.436C447.193 513.284 447.013 513.056 446.81 512.751C446.622 512.447 446.466 512.209 446.341 512.038C446.216 511.848 446.052 511.562 445.849 511.182C445.661 510.801 445.529 510.535 445.45 510.382C445.372 510.23 445.24 509.954 445.052 509.555C444.865 509.155 444.747 508.917 444.7 508.841L443.833 514.293C443.552 514.388 443.294 514.435 443.06 514.435C442.857 514.435 442.599 514.388 442.286 514.293L444.841 498.338C444.982 497.558 445.052 497.053 445.052 496.825C445.052 496.463 444.575 496.283 443.622 496.283C443.575 496.283 443.552 496.226 443.552 496.111C443.552 495.883 443.615 495.693 443.74 495.541C444.755 495.426 445.74 495.16 446.693 494.741C446.786 494.799 446.833 494.979 446.833 495.284C446.833 495.512 446.732 496.226 446.529 497.424L445.31 505.102L445.568 504.731C445.74 504.484 445.943 504.217 446.177 503.932C446.427 503.627 446.708 503.314 447.021 502.99C447.349 502.667 447.708 502.4 448.099 502.191C448.505 501.982 448.896 501.877 449.271 501.877ZM448.427 503.218C447.927 503.218 447.24 503.856 446.365 505.131C445.505 506.406 445.075 507.252 445.075 507.671C445.075 507.709 445.091 507.728 445.122 507.728C445.185 507.728 445.263 507.718 445.357 507.699C445.466 507.68 445.661 507.642 445.943 507.585C446.24 507.509 446.521 507.424 446.786 507.328C447.068 507.233 447.365 507.1 447.677 506.929C448.005 506.739 448.286 506.539 448.521 506.329C448.755 506.101 448.95 505.825 449.107 505.502C449.279 505.178 449.365 504.826 449.365 504.446C449.365 503.627 449.052 503.218 448.427 503.218Z" fill="#18326B"/>
<path d="M256.117 309.588H257.288L257.185 311.014L255.807 313.867L255.29 313.154H254.704L256.117 309.588ZM234.411 310.301H235.583L237.236 311.727L237.271 311.014C239.361 311.49 240.843 312.678 241.715 314.58C243.07 314.58 244.472 319.573 245.919 329.559L254.015 314.58L254.635 313.867H255.221L255.186 314.58L246.883 332.412H248.055C254.187 317.671 257.839 310.301 259.011 310.301L260.664 311.727L260.699 311.014C262.376 311.014 264.362 313.392 266.659 318.147L266.487 320.287L265.867 321L266.384 321.713L266.177 324.566H265.006L265.867 328.846L264.73 336.692L264.558 338.831L265.109 339.545L265.04 340.258L263.8 341.684L264.833 343.111L263.593 344.537L264.627 345.964L264.006 346.677H263.421L263.972 347.39L262.525 367.362C261.354 367.362 260.722 368.075 260.63 369.502C259.459 369.502 258.781 370.69 258.597 373.068H256.84L253.533 370.215L254.429 365.935L253.567 361.656L257.529 330.985C255.577 333.475 253.441 338.705 251.121 346.677C250.914 349.446 249.996 351.348 248.365 352.383H247.779L247.814 351.67L248.468 350.957L248.537 350.243L247.986 349.53L249.261 348.104L249.398 345.964H248.227C248.066 348.565 247.147 350.467 245.471 351.67H244.885L242.232 348.104C241.199 348.104 240.578 345.964 240.372 341.684C238.373 336.734 237.455 333.167 237.615 330.985H237.03L235.824 339.545L235.41 345.251L234.687 347.39L234.997 350.957L233.894 366.648C233.113 366.648 232.666 367.362 232.551 368.788L229.381 372.355H228.795L224.833 370.215L225.695 366.648L225.66 358.803L225.901 355.236L226.521 354.523L226.005 353.81L226.074 353.097C226.602 345.824 227.75 337.978 229.519 329.559H230.105L229.553 328.846L229.622 328.132L230.415 325.279L230.001 322.426L230.07 321.713H230.656L230.552 323.14H231.138L231.31 321L230.759 320.287L232.895 315.294L233.033 313.154L232.378 313.867H231.793L231.276 313.154L231.414 311.014H231.999L232.551 311.727H233.136L234.411 310.301ZM249.088 342.398L249.536 344.537H250.122C250.283 341.992 252.694 335.573 257.357 325.279L258.184 321.713C255.267 326.132 252.235 333.027 249.088 342.398ZM259.528 327.419L258.907 328.132L257.598 345.964H258.184L259.872 330.985L259.321 330.272H259.907L259.39 329.559L259.424 328.846L260.079 328.132L260.113 327.419H259.528ZM255.703 364.509L255.29 370.215H255.876L256.737 366.648L256.289 364.509H255.703Z" fill="#18326B"/>
<path d="M290.156 307.322C290.409 308.749 291.971 309.462 294.842 309.462L299.528 334.426H303.628V335.139L300.113 335.852V336.566C301.285 336.566 301.87 337.041 301.87 337.992H306.556V338.705C306.556 339.768 304.604 340.719 300.699 341.559L301.87 345.838L301.285 347.978L301.87 352.257L301.285 352.971H301.87L301.285 353.684L301.87 362.243V366.523L301.285 365.809H300.699L302.456 376.508H301.285C301.285 375.082 300.894 374.369 300.113 374.369V375.082L300.699 377.222H300.113L299.528 376.508H298.942C298.942 377.935 298.552 378.648 297.771 378.648L294.842 366.523H294.256V369.376H293.671L292.499 360.817L294.256 362.243V361.53C293.935 357.25 293.349 355.11 292.499 355.11L293.085 354.397V352.257H291.914V354.397H291.328V351.544L291.914 350.831H291.328L290.742 351.544V348.691H291.328L291.914 349.404H292.499L291.914 348.691V344.412L279.028 347.978V349.404L283.128 347.978L285.471 348.691L288.399 347.978V349.404C280.199 351.195 276.1 353.572 276.1 356.537C275.066 361.768 273.895 365.096 272.585 366.523V367.949H270.828L270.243 367.236H269.657V367.949L267.9 366.523L269.071 362.243H268.485C267.314 362.243 266.728 364.145 266.728 367.949L265.557 366.523L266.143 362.243L264.385 360.103L274.342 330.86H274.928C274.928 332.286 275.319 332.999 276.1 332.999L276.685 329.433L276.1 330.146H275.514V327.293L276.1 323.727L276.685 324.44H277.271L276.685 323.727V323.014L277.857 320.161H278.442L279.028 320.874H279.614V320.161C279.614 319.21 279.028 318.734 277.857 318.734L280.785 308.749H283.128L282.542 309.462V310.175C285.253 308.273 287.791 307.322 290.156 307.322ZM286.642 323.727L281.957 338.705H283.128C287.033 338.705 289.18 337.279 289.571 334.426L287.228 323.727H286.642ZM281.371 328.007L280.199 332.999L279.614 332.286H279.028L279.614 335.139H280.199L281.957 328.72V328.007H281.371ZM274.928 334.426L274.342 335.139V336.566H274.928L275.514 334.426H274.928ZM278.442 337.279L277.857 340.132H278.442L279.028 339.419V337.279H278.442ZM273.171 337.992L272.585 340.845H273.171L274.342 337.992H273.171ZM283.128 340.132V340.845H284.299C287.814 340.37 289.571 339.657 289.571 338.705H288.985L283.128 340.132ZM291.328 355.824H292.499V360.103H291.914L291.328 355.824ZM299.528 360.817V362.243L300.113 365.096H300.699V363.67L300.113 360.817H299.528ZM293.671 362.956V364.383L295.428 363.67V362.243L293.671 362.956Z" fill="#1C346D"/>
<path d="M320.613 310.217H327.641C335.841 312.091 339.941 316.371 339.941 323.056V327.335L334.084 337.321H334.67L340.527 330.902V332.328C338.529 337.754 335.991 341.321 332.913 343.027L329.399 344.454V347.307C330.248 347.307 334.348 353.488 341.698 365.851C343.26 366.635 344.822 368.537 346.384 371.557V372.271L343.455 369.418V370.131C345.408 372.648 346.384 374.55 346.384 375.837H345.798L342.87 377.977H342.284L341.113 375.837L340.527 376.55H339.941C332.132 368.774 326.665 360.928 323.541 353.013L320.613 345.88C319.235 345.88 318.454 348.733 318.27 354.439C318.523 359.194 318.328 362.089 317.684 363.124C316.536 364.271 316.341 365.418 317.099 366.565V367.991H315.342C314.561 367.991 314.17 367.04 314.17 365.138H313.585C313.585 367.04 312.85 367.753 311.38 367.278L308.796 363.082L309.485 356.579V353.726L312.999 333.755H313.585V336.608H314.17L317.099 321.629C316.318 321.629 315.927 322.58 315.927 324.482H315.342V323.056H311.827V322.342C311.827 321.391 312.999 320.678 315.342 320.203V319.489H314.17L310.656 320.916H310.07C310.07 319.965 310.851 319.489 312.413 319.489V318.776C310.851 318.776 310.07 318.063 310.07 316.636L320.613 310.217ZM321.199 335.894H321.784C327.917 332.314 332.212 328.51 334.67 324.482V323.056C334.67 321.433 332.327 319.769 327.641 318.063L324.127 319.489L321.199 335.894ZM332.913 318.063C333.694 320.217 334.475 321.405 335.256 321.629V320.203L332.913 318.063ZM336.427 322.342L335.841 325.909H336.427L337.013 325.196V322.342H336.427ZM314.756 324.482H315.342V326.622L314.756 329.475H314.17V327.335L314.756 324.482ZM334.67 327.335L331.741 332.328H332.327L335.256 328.049V327.335H334.67ZM340.527 328.762H341.698L341.113 330.902H340.527V328.762ZM313.585 330.902H314.17V333.755H313.585V330.902ZM312.413 340.174V343.027H312.999V340.174H312.413ZM329.984 361.572V362.285L332.327 365.138C331.569 362.984 330.788 361.796 329.984 361.572ZM332.913 366.565V367.278L335.256 369.418V368.704L332.913 366.565Z" fill="#1F3570"/>
<path d="M356.444 310.846C356.352 312.273 357.087 312.986 358.649 312.986L359.717 315.839L359.097 316.552H359.683C356.881 326.622 355.169 338.272 354.549 351.502L354.343 355.782L354.928 356.495L354.894 357.208L354.274 357.922H354.859L354.239 358.635L354.584 363.628L354.515 365.054C352.425 368.131 351.334 370.509 351.242 372.187H348.899L346.074 370.76L346.901 365.767L344.661 362.914L345.729 352.216L346.315 339.377L347.59 337.237L347.728 334.384L347.176 333.671L347.211 332.957H348.382L348.417 332.244L347.865 331.531L350.243 317.979H349.657L350.277 317.266L350.449 312.986L349.898 312.273L349.933 311.56L356.444 310.846ZM349.967 323.685L349.76 328.678H350.346L350.553 323.685H349.967ZM349.071 330.818L348.865 335.097H349.45L349.657 330.818H349.071ZM348.175 337.237L348.003 341.517H348.589L348.761 337.237H348.175ZM348.072 365.767L347.9 369.334L349.106 367.907L349.244 365.767H348.072ZM362.646 288.568C362.738 288.707 362.784 288.917 362.784 289.197C363.036 289.197 363.197 289.407 363.266 289.826C363.266 290.302 362.026 291.896 359.545 294.609C359.545 294.777 359.132 295.336 358.305 296.288C357.891 296.875 357.685 297.294 357.685 297.546C360.556 293.91 362.416 291.826 363.266 291.295H363.335L363.266 291.714L363.404 291.924C363.404 292.344 363.071 292.903 362.405 293.602L362.784 293.77L363.404 293.267L363.473 293.351V293.518C363.335 293.686 363.231 293.98 363.163 294.399C361.118 296.721 359.671 298.525 358.821 299.812C357.122 302.05 356.192 303.812 356.031 305.098L355.893 305.35C355.066 305.21 354.653 304.819 354.653 304.175L354.411 303.924V303.756L354.48 303.462H354.411C353.837 303.462 353.424 302.693 353.171 301.154C353.745 299.504 354.699 297.826 356.031 296.12C357.018 294.665 358.81 292.567 361.405 289.826L362.646 288.568ZM360.785 295.742V295.868H360.854L361.405 295.113H361.302L360.785 295.742ZM360.372 296.204V296.287L360.544 296.12V296.036L360.372 296.204ZM359.752 297.001V297.127L359.993 296.833V296.749L359.752 297.001ZM359.545 297.211L359.442 297.462H359.614V297.211H359.545ZM356.892 298.637L357.443 297.924H357.374C357.053 298.092 356.892 298.329 356.892 298.637Z" fill="#233772"/>
<path d="M383.042 307.322C383.295 308.749 384.857 309.462 387.728 309.462L392.413 334.426H396.513V335.139L392.999 335.852V336.566C394.17 336.566 394.756 337.041 394.756 337.992H399.442V338.705C399.442 339.768 397.489 340.719 393.585 341.559L394.756 345.838L394.17 347.978L394.756 352.257L394.17 352.971H394.756L394.17 353.684L394.756 362.243V366.523L394.17 365.809H393.585L395.342 376.508H394.17C394.17 375.082 393.78 374.369 392.999 374.369V375.082L393.585 377.222H392.999L392.413 376.508H391.828C391.828 377.935 391.437 378.648 390.656 378.648L387.728 366.523H387.142V369.376H386.556L385.385 360.817L387.142 362.243V361.53C386.82 357.25 386.235 355.11 385.385 355.11L385.971 354.397V352.257H384.799V354.397H384.213V351.544L384.799 350.831H384.213L383.628 351.544V348.691H384.213L384.799 349.404H385.385L384.799 348.691V344.412L371.914 347.978V349.404L376.014 347.978L378.356 348.691L381.285 347.978V349.404C373.085 351.195 368.985 353.572 368.985 356.537C367.952 361.768 366.78 365.096 365.471 366.523V367.949H363.714L363.128 367.236H362.542V367.949L360.785 366.523L361.957 362.243H361.371C360.2 362.243 359.614 364.145 359.614 367.949L358.443 366.523L359.028 362.243L357.271 360.103L367.228 330.86H367.814C367.814 332.286 368.204 332.999 368.985 332.999L369.571 329.433L368.985 330.146H368.399V327.293L368.985 323.727L369.571 324.44H370.157L369.571 323.727V323.014L370.742 320.161H371.328L371.914 320.874H372.499V320.161C372.499 319.21 371.914 318.734 370.742 318.734L373.671 308.749H376.014L375.428 309.462V310.175C378.138 308.273 380.676 307.322 383.042 307.322ZM379.528 323.727L374.842 338.705H376.014C379.918 338.705 382.066 337.279 382.456 334.426L380.114 323.727H379.528ZM374.257 328.007L373.085 332.999L372.499 332.286H371.914L372.499 335.139H373.085L374.842 328.72V328.007H374.257ZM367.814 334.426L367.228 335.139V336.566H367.814L368.399 334.426H367.814ZM371.328 337.279L370.742 340.132H371.328L371.914 339.419V337.279H371.328ZM366.057 337.992L365.471 340.845H366.057L367.228 337.992H366.057ZM376.014 340.132V340.845H377.185C380.699 340.37 382.456 339.657 382.456 338.705H381.871L376.014 340.132ZM384.213 355.824H385.385V360.103H384.799L384.213 355.824ZM392.413 360.817V362.243L392.999 365.096H393.585V363.67L392.999 360.817H392.413ZM386.556 362.956V364.383L388.313 363.67V362.243L386.556 362.956Z" fill="#263874"/>
<path d="M247.366 400.352L247.297 401.779H245.54L245.505 402.492H246.091L257.254 401.779H259.596L259.562 402.492L258.356 403.918L258.907 404.632L258.873 406.058C258.804 408.52 258.172 409.946 256.978 410.338L257.529 412.478L256.84 414.617L256.289 413.904H255.703C250.237 414.24 247.492 414.715 247.469 415.331L246.883 414.617C240.199 415.904 236.811 418.282 236.72 421.75L236.547 427.456L250.639 426.03L251.224 426.743L251.19 427.456H248.261L248.227 428.169C250.179 428.169 251.132 428.645 251.087 429.596V430.309C251.018 432.687 250.593 433.875 249.812 433.875H246.298L246.263 434.589H250.363L250.329 436.015C250.306 436.826 245.367 438.491 235.514 441.008L234.687 448.854L235.273 449.567V450.28L234.652 450.994L234.618 451.707L235.135 453.847H234.549L235.066 455.986C235.204 458 233.837 461.693 230.966 467.063L226.28 466.35L227.073 459.217C225.58 459.217 224.833 458.336 224.833 456.574V456.364C225.43 455.161 226.142 447.665 226.969 433.875H228.141L227.59 433.162L228.347 427.456L228.899 428.169H229.484L230.311 421.037L230.415 418.184C228.462 418.184 227.486 417.708 227.486 416.757L228.726 414.617C227.165 414.617 226.418 413.904 226.487 412.478C226.602 408.198 227.245 406.058 228.416 406.058C230.369 406.058 231.379 404.869 231.448 402.492H232.034L232.585 403.205L233.826 401.779H235.583L237.271 403.918L247.366 400.352ZM248.985 403.918L248.95 404.632H250.708L257.185 403.918V403.205H253.671L248.985 403.918ZM243.472 411.764V412.478H244.058L255.772 411.051L255.807 410.338L254.084 409.625L253.464 410.338H252.878L252.327 409.625L243.472 411.764ZM227.934 440.295L227.693 448.141H228.279L228.52 440.295H227.934ZM228.795 460.644L228.692 463.497H229.278L229.381 460.644H228.795Z" fill="#2A3A77"/>
<path d="M290.363 402.576L293.188 404.967C292.361 409.191 290.868 411.219 288.709 411.051L273.412 411.89L273.343 413.317L276.237 413.569L279.786 413.149L280.337 413.946L280.923 413.988L285.057 413.569L286.229 413.694L286.194 414.408L272.585 416.128L271.517 425.358L272.103 425.4L288.02 423.848L288.537 424.603L288.503 425.316L287.331 425.19V425.904L291.362 426.995L291.328 427.708C290.478 430.365 284.874 432.519 274.515 434.169L268.623 434.421L269.174 435.134L266.349 444.197H265.764L266.108 437.777L265.522 437.735L264.385 447.637C276.077 445.735 284.334 444.98 289.157 445.372L292.017 446.337L291.982 447.763L290.811 447.679L291.328 448.434L291.224 450.574C290.099 452.364 287.71 453.12 284.058 452.84L284.024 453.553L288.709 453.931L288.606 455.357L261.354 460.224L260.768 460.182C258.884 459.679 257.943 458.938 257.943 457.959V457.833L258.046 455.693L259.665 447.973L259.114 447.218L260.286 447.26L260.079 450.826L260.665 450.91C260.894 448.532 261.354 447.385 262.043 447.469L261.491 446.672L261.905 439.582L260.733 439.456L259.941 442.98L260.596 442.309L261.181 442.351L260.94 446.63L260.354 446.546L260.458 444.449L259.872 444.407L259.803 445.833L259.218 445.791L259.286 444.365L261.147 432.323L260.561 432.281L261.905 428.841L261.354 428.085L261.388 427.372L262.663 415.331L263.214 416.086L263.8 416.128L263.869 414.701L263.49 411.093L264.42 404.716L264.523 402.576L265.109 402.66L265.66 403.415L266.28 402.744L266.866 402.828L267.417 403.541L268.037 402.87L269.795 403.037L290.363 402.576ZM261.044 433.75L260.768 438.742L261.354 438.784L261.629 433.834L261.044 433.75ZM280.372 434.673H280.957L280.889 435.386L270.277 436.687L269.726 435.889L269.76 435.218L275.066 434.924L275.031 435.638L280.372 434.673Z" fill="#2D3B79"/>
<path d="M305.798 402.198H312.827C321.026 404.072 325.126 408.352 325.126 415.037V419.317L319.269 429.302H319.855L325.712 422.883V424.309C323.714 429.736 321.176 433.302 318.098 435.008L314.584 436.435V439.288C315.434 439.288 319.533 445.47 326.883 457.833C328.445 458.616 330.007 460.518 331.569 463.539V464.252L328.641 461.399V462.112C330.593 464.63 331.569 466.532 331.569 467.818H330.983L328.055 469.958H327.469L326.298 467.818L325.712 468.532H325.126C317.317 460.756 311.85 452.91 308.727 444.994L305.798 437.861C304.42 437.861 303.639 440.714 303.455 446.421C303.708 451.176 303.513 454.071 302.87 455.106C301.721 456.252 301.526 457.399 302.284 458.546V459.972H300.527C299.746 459.972 299.355 459.021 299.355 457.119H298.77C298.77 459.021 298.035 459.735 296.565 459.259L293.981 455.064L294.67 448.56V445.707L298.184 425.736H298.77V428.589H299.355L302.284 413.611C301.503 413.611 301.113 414.562 301.113 416.464H300.527V415.037H297.013V414.324C297.013 413.373 298.184 412.66 300.527 412.184V411.471H299.355L295.841 412.897H295.255C295.255 411.946 296.036 411.471 297.598 411.471V410.757C296.036 410.757 295.255 410.044 295.255 408.618L305.798 402.198ZM306.384 427.876H306.97C313.102 424.295 317.397 420.491 319.855 416.464V415.037C319.855 413.415 317.512 411.75 312.827 410.044L309.312 411.471L306.384 427.876ZM318.098 410.044C318.879 412.198 319.66 413.387 320.441 413.611V412.184L318.098 410.044ZM321.612 414.324L321.026 417.89H321.612L322.198 417.177V414.324H321.612ZM299.941 416.464H300.527V418.603L299.941 421.456H299.355V419.317L299.941 416.464ZM319.855 419.317L316.926 424.309H317.512L320.441 420.03V419.317H319.855ZM325.712 420.743H326.883L326.298 422.883H325.712V420.743ZM298.77 422.883H299.355V425.736H298.77V422.883ZM297.598 432.155V435.008H298.184V432.155H297.598ZM315.169 453.553V454.266L317.512 457.119C316.754 454.966 315.973 453.777 315.169 453.553ZM318.098 458.546V459.259L320.441 461.399V460.686L318.098 458.546Z" fill="#313D7B"/>
<path d="M340.286 402.911L344.386 407.191C344.386 405.764 344.776 405.051 345.557 405.051H346.143L354.343 430.729V432.155H353.757L352.585 427.876H352V429.302L356.1 441.428H356.685C358.247 429.064 360.498 416.156 363.438 402.702L365.195 404.128L366.952 403.415L370.467 405.555V406.268C369.295 406.268 368.71 407.219 368.71 409.121H369.295L369.881 409.834H370.467L371.052 406.268H372.224V406.981L371.638 407.694L372.224 408.408V409.121C369.284 420.114 366.642 435.875 364.3 456.406H363.128L364.3 444.994C363.519 444.994 362.347 449.511 360.785 458.546C359.338 459.972 357.972 460.686 356.685 460.686V462.112H356.1C356.1 461.161 355.319 460.686 353.757 460.686V455.693C353.757 453.539 349.852 441.651 342.043 420.03H341.457C339.895 428.505 338.529 439.917 337.357 454.266L336.771 453.553C334.429 454.392 333.257 455.581 333.257 457.119H332.086C331.305 455.329 330.914 452.238 330.914 447.847H330.329V454.266H329.157L328.572 450.7C328.572 437.777 330.914 422.086 335.6 403.625L340.286 402.911ZM332.086 420.743V421.456L332.672 422.169L332.086 422.883V424.309H332.672L333.257 421.456L332.672 420.743H332.086ZM354.343 432.155C355.353 432.155 356.134 434.057 356.685 437.861V438.574H356.1L354.343 432.155Z" fill="#343E7E"/>
<path d="M395.927 399.303C396.18 400.73 397.742 401.443 400.613 401.443L405.299 426.407H409.399V427.121L405.884 427.834V428.547C407.056 428.547 407.641 429.023 407.641 429.974H412.327V430.687C412.327 431.75 410.375 432.701 406.47 433.54L407.641 437.819L407.056 439.959L407.641 444.239L407.056 444.952H407.641L407.056 445.665L407.641 454.224V458.504L407.056 457.791H406.47L408.227 468.49H407.056C407.056 467.063 406.665 466.35 405.884 466.35V467.063L406.47 469.203H405.884L405.299 468.49H404.713C404.713 469.916 404.323 470.629 403.542 470.629L400.613 458.504H400.027V461.357H399.442L398.27 452.798L400.027 454.224V453.511C399.706 449.232 399.12 447.092 398.27 447.092L398.856 446.379V444.239H397.685V446.379H397.099V443.526L397.685 442.812H397.099L396.513 443.526V440.672H397.099L397.685 441.386H398.27L397.685 440.672V436.393L384.799 439.959V441.386L388.899 439.959L391.242 440.672L394.17 439.959V441.386C385.97 443.176 381.871 445.553 381.871 448.518C380.837 453.749 379.666 457.077 378.356 458.504V459.93H376.599L376.014 459.217H375.428V459.93L373.671 458.504L374.842 454.224H374.256C373.085 454.224 372.499 456.126 372.499 459.93L371.328 458.504L371.914 454.224L370.156 452.085L380.113 422.841H380.699C380.699 424.267 381.09 424.981 381.871 424.981L382.456 421.414L381.871 422.128H381.285V419.275L381.871 415.708L382.456 416.422H383.042L382.456 415.708V414.995L383.628 412.142H384.213L384.799 412.855H385.385V412.142C385.385 411.191 384.799 410.716 383.628 410.716L386.556 400.73H388.899L388.313 401.443V402.156C391.024 400.254 393.562 399.303 395.927 399.303ZM392.413 415.708L387.728 430.687H388.899C392.804 430.687 394.951 429.26 395.342 426.407L392.999 415.708H392.413ZM387.142 419.988L385.97 424.981L385.385 424.267H384.799L385.385 427.121H385.97L387.728 420.701V419.988H387.142ZM380.699 426.407L380.113 427.121V428.547H380.699L381.285 426.407H380.699ZM384.213 429.26L383.628 432.113H384.213L384.799 431.4V429.26H384.213ZM378.942 429.974L378.356 432.827H378.942L380.113 429.974H378.942ZM388.899 432.113V432.827H390.07C393.585 432.351 395.342 431.638 395.342 430.687H394.756L388.899 432.113ZM397.099 447.805H398.27V452.085H397.685L397.099 447.805ZM405.299 452.798V454.224L405.884 457.077H406.47V455.651L405.884 452.798H405.299ZM399.442 454.938V456.364L401.199 455.651V454.224L399.442 454.938Z" fill="#384080"/>
<path d="M425.867 402.911L429.967 407.191C429.967 405.764 430.358 405.051 431.139 405.051H431.724L439.924 430.729V432.155H439.338L438.167 427.876H437.581V429.302L441.681 441.428H442.267C443.829 429.064 446.08 416.156 449.02 402.702L450.777 404.128L452.534 403.415L456.048 405.555V406.268C454.877 406.268 454.291 407.219 454.291 409.121H454.877L455.462 409.834H456.048L456.634 406.268H457.805V406.981L457.22 407.694L457.805 408.408V409.121C454.865 420.114 452.224 435.875 449.881 456.406H448.71L449.881 444.994C449.1 444.994 447.929 449.511 446.367 458.546C444.92 459.972 443.553 460.686 442.267 460.686V462.112H441.681C441.681 461.161 440.9 460.686 439.338 460.686V455.693C439.338 453.539 435.434 441.651 427.624 420.03H427.039C425.477 428.505 424.11 439.917 422.939 454.266L422.353 453.553C420.01 454.392 418.839 455.581 418.839 457.119H417.667C416.886 455.329 416.496 452.238 416.496 447.847H415.91V454.266H414.739L414.153 450.7C414.153 437.777 416.496 422.086 421.182 403.625L425.867 402.911ZM417.667 420.743V421.456L418.253 422.169L417.667 422.883V424.309H418.253L418.839 421.456L418.253 420.743H417.667ZM439.924 432.155C440.935 432.155 441.716 434.057 442.267 437.861V438.574H441.681L439.924 432.155Z" fill="#3B4282"/>
<path d="M466.832 402.366H469.175L470.932 403.793L475.032 403.079C481.808 403.079 488.055 407.834 493.774 417.345L496.703 424.477L496.117 425.19L496.703 428.757V432.323C496.703 444.546 488.503 453.819 472.103 460.14L466.246 460.853C466.246 459.651 465.465 458.937 463.904 458.714V461.567H462.146V457.287L461.561 456.574L462.146 455.861V455.147C459.804 453.189 458.632 451.525 458.632 450.155C459.804 428.617 461.756 412.925 464.489 403.079H465.075L465.661 403.793L466.832 402.366ZM464.489 409.499L461.561 430.183V430.897H462.146L465.075 410.925V409.499H464.489ZM473.86 414.492C473.86 415.443 473.08 415.918 471.518 415.918C469.956 424.589 468.784 434.575 468.003 445.875C470.277 445.875 476.134 443.497 485.575 438.742V438.029H484.403C487.527 434.141 489.089 430.099 489.089 425.904V423.764C489.089 418.533 486.16 415.443 480.303 414.492H473.86ZM485.575 414.492V415.205L487.917 416.631V415.918L486.16 414.492H485.575ZM490.846 424.477L490.26 433.036H491.432V430.897L492.017 428.043L491.432 424.477H490.846ZM494.946 430.183L492.017 441.595V442.309H492.603L495.531 431.61V430.183H494.946ZM489.089 435.176L487.917 438.029H488.503L489.674 435.176H489.089ZM485.575 448.015C486.493 447.847 487.86 446.42 489.674 443.735V443.022L485.575 448.015ZM472.103 452.294V453.008H474.446L477.375 451.581V450.868H476.789L472.103 452.294ZM467.418 453.008L468.003 455.147H469.175L470.346 453.721V453.008H469.761L468.003 453.721L467.418 453.008ZM460.975 457.287H461.561V458L460.389 459.427H459.804V458.714L460.975 457.287Z" fill="#3F4385"/>
<path d="M520.786 399.303C521.038 400.73 522.6 401.443 525.471 401.443L530.157 426.407H534.257V427.121L530.743 427.834V428.547C531.914 428.547 532.5 429.023 532.5 429.974H537.185V430.687C537.185 431.75 535.233 432.701 531.328 433.54L532.5 437.819L531.914 439.959L532.5 444.239L531.914 444.952H532.5L531.914 445.665L532.5 454.224V458.504L531.914 457.791H531.328L533.085 468.49H531.914C531.914 467.063 531.523 466.35 530.743 466.35V467.063L531.328 469.203H530.743L530.157 468.49H529.571C529.571 469.916 529.181 470.629 528.4 470.629L525.471 458.504H524.886V461.357H524.3L523.128 452.798L524.886 454.224V453.511C524.564 449.232 523.978 447.092 523.128 447.092L523.714 446.379V444.239H522.543V446.379H521.957V443.526L522.543 442.812H521.957L521.371 443.526V440.672H521.957L522.543 441.386H523.128L522.543 440.672V436.393L509.657 439.959V441.386L513.757 439.959L516.1 440.672L519.028 439.959V441.386C510.829 443.176 506.729 445.553 506.729 448.518C505.695 453.749 504.524 457.077 503.214 458.504V459.93H501.457L500.872 459.217H500.286V459.93L498.529 458.504L499.7 454.224H499.115C497.943 454.224 497.357 456.126 497.357 459.93L496.186 458.504L496.772 454.224L495.015 452.085L504.972 422.841H505.557C505.557 424.267 505.948 424.981 506.729 424.981L507.314 421.414L506.729 422.128H506.143V419.275L506.729 415.708L507.314 416.422H507.9L507.314 415.708V414.995L508.486 412.142H509.072L509.657 412.855H510.243V412.142C510.243 411.191 509.657 410.716 508.486 410.716L511.414 400.73H513.757L513.171 401.443V402.156C515.882 400.254 518.42 399.303 520.786 399.303ZM517.271 415.708L512.586 430.687H513.757C517.662 430.687 519.809 429.26 520.2 426.407L517.857 415.708H517.271ZM512 419.988L510.829 424.981L510.243 424.267H509.657L510.243 427.121H510.829L512.586 420.701V419.988H512ZM505.557 426.407L504.972 427.121V428.547H505.557L506.143 426.407H505.557ZM509.072 429.26L508.486 432.113H509.072L509.657 431.4V429.26H509.072ZM503.8 429.974L503.214 432.827H503.8L504.972 429.974H503.8ZM513.757 432.113V432.827H514.929C518.443 432.351 520.2 431.638 520.2 430.687H519.614L513.757 432.113ZM521.957 447.805H523.128V452.085H522.543L521.957 447.805ZM530.157 452.798V454.224L530.743 457.077H531.328V455.651L530.743 452.798H530.157ZM524.3 454.938V456.364L526.057 455.651V454.224L524.3 454.938Z" fill="#424587"/>
<path d="M565.437 399.681L565.988 400.394V401.107L566.574 400.394H569.502C570.283 400.394 570.651 401.583 570.605 403.96H571.191C571.236 402.534 571.65 401.821 572.431 401.821C573.212 401.821 573.579 402.534 573.533 403.96L577.668 403.247L583.938 404.674L586.281 403.96C589.267 403.96 591.564 405.862 593.172 409.667L592.551 414.659L593.103 415.373V416.086L591.828 420.365H591.242L591.277 418.939H590.691C587.659 427.89 583.387 434.071 577.875 437.484L568.365 442.477L568.055 454.602L568.538 458.168C567.757 458.168 566.712 460.546 565.402 465.301L564.817 466.014H564.231L559.614 463.161L560.372 457.455L558.684 454.602L560.131 444.616L559.545 443.903L561.682 430.351L561.096 429.638L561.716 428.925H562.887L562.818 431.778H563.404L563.508 428.211L562.991 426.072H564.162L564.231 422.505L563.094 421.079L563.025 423.932H562.44C562.531 420.911 561.429 418.533 559.132 416.799L558.65 412.52L558.753 409.667C563.875 407.121 566.448 405.457 566.471 404.674L566.505 403.96L565.368 402.534L564.782 403.247L564.231 400.394L564.851 399.681H565.437ZM570.536 427.498H571.707C576.737 424.925 581.147 420.645 584.937 414.659H583.18C575.348 415.303 571.409 416.729 571.363 418.939L570.536 427.498ZM585.454 417.512C584.214 420.198 579.218 424.239 570.467 429.638L569.881 430.351V431.064H571.053C576.818 428.911 581.814 424.393 586.04 417.512H585.454ZM561.647 432.491L561.613 433.204L562.164 433.917L561.578 434.631L561.509 436.057H562.681L562.818 432.491H561.647Z" fill="#464689"/>
<path d="M605.816 402.198H612.844C621.044 404.072 625.144 408.352 625.144 415.037V419.317L619.287 429.302H619.873L625.73 422.883V424.309C623.732 429.736 621.194 433.302 618.116 435.008L614.602 436.435V439.288C615.451 439.288 619.551 445.47 626.901 457.833C628.463 458.616 630.025 460.518 631.587 463.539V464.252L628.658 461.399V462.112C630.611 464.63 631.587 466.532 631.587 467.818H631.001L628.073 469.958H627.487L626.316 467.818L625.73 468.532H625.144C617.335 460.756 611.868 452.91 608.744 444.994L605.816 437.861C604.438 437.861 603.657 440.714 603.473 446.421C603.726 451.176 603.531 454.071 602.887 455.106C601.739 456.252 601.544 457.399 602.302 458.546V459.972H600.545C599.764 459.972 599.373 459.021 599.373 457.119H598.788C598.788 459.021 598.053 459.735 596.583 459.259L593.999 455.064L594.688 448.56V445.707L598.202 425.736H598.788V428.589H599.373L602.302 413.611C601.521 413.611 601.13 414.562 601.13 416.464H600.545V415.037H597.03V414.324C597.03 413.373 598.202 412.66 600.545 412.184V411.471H599.373L595.859 412.897H595.273C595.273 411.946 596.054 411.471 597.616 411.471V410.757C596.054 410.757 595.273 410.044 595.273 408.618L605.816 402.198ZM606.402 427.876H606.987C613.12 424.295 617.415 420.491 619.873 416.464V415.037C619.873 413.415 617.53 411.75 612.844 410.044L609.33 411.471L606.402 427.876ZM618.116 410.044C618.897 412.198 619.678 413.387 620.459 413.611V412.184L618.116 410.044ZM621.63 414.324L621.044 417.89H621.63L622.216 417.177V414.324H621.63ZM599.959 416.464H600.545V418.603L599.959 421.456H599.373V419.317L599.959 416.464ZM619.873 419.317L616.944 424.309H617.53L620.459 420.03V419.317H619.873ZM625.73 420.743H626.901L626.316 422.883H625.73V420.743ZM598.788 422.883H599.373V425.736H598.788V422.883ZM597.616 432.155V435.008H598.202V432.155H597.616ZM615.187 453.553V454.266L617.53 457.119C616.772 454.966 615.991 453.777 615.187 453.553ZM618.116 458.546V459.259L620.459 461.399V460.686L618.116 458.546Z" fill="#49488C"/>
<path d="M654.636 402.366C659.23 402.366 663.525 404.03 667.521 407.359L666.936 408.072V408.785L669.279 413.065H668.107L667.521 412.352H666.936L668.693 428.043H669.279C669.279 425.666 669.669 424.477 670.45 424.477V427.33C670.45 430.015 668.498 436.197 664.593 445.875H665.179C662.422 450.49 658.322 454.77 652.879 458.714L649.95 459.427H649.365C640.085 459.427 634.228 454.91 631.794 445.875L629.451 441.595L630.036 440.882L629.451 435.889V434.463C629.451 430.519 632.574 423.624 638.822 413.778V414.492C635.951 419.191 633.608 424.421 631.794 430.183V430.897H632.379C633.803 423.932 639.075 415.135 648.193 404.506L644.093 407.359H643.508C643.508 405.177 647.217 403.513 654.636 402.366ZM651.707 414.492L651.122 413.778V414.492L651.707 415.205L647.608 419.484C644.369 419.484 641.245 426.141 638.236 439.456C638.236 443.26 639.993 446.588 643.508 449.441H644.093C648.366 449.441 653.246 443.973 658.736 433.036C660.688 427.834 661.664 424.03 661.664 421.624V415.918C661.664 414.603 659.712 413.652 655.807 413.065H655.222L654.636 413.778H654.05V413.065L651.707 414.492ZM668.693 416.631H669.864V420.198H668.693V416.631ZM638.822 424.477L637.065 428.757H637.651L639.408 424.477H638.822ZM661.664 428.757L659.322 435.889H661.079L662.836 430.897L662.25 428.757H661.664ZM665.764 431.61L665.179 433.75V435.176H665.764L666.35 432.323V431.61H665.764ZM631.208 434.463V440.169H631.794V434.463H631.208ZM658.736 436.603L656.393 440.169H656.979L659.322 436.603H658.736ZM639.993 452.294V453.008L642.922 455.147V454.434L639.993 452.294Z" fill="#4D498E"/>
<path d="M694.843 399.303C695.095 400.73 696.657 401.443 699.528 401.443L704.214 426.407H708.314V427.121L704.8 427.834V428.547C705.971 428.547 706.557 429.023 706.557 429.974H711.242V430.687C711.242 431.75 709.29 432.701 705.385 433.54L706.557 437.819L705.971 439.959L706.557 444.239L705.971 444.952H706.557L705.971 445.665L706.557 454.224V458.504L705.971 457.791H705.385L707.143 468.49H705.971C705.971 467.063 705.581 466.35 704.8 466.35V467.063L705.385 469.203H704.8L704.214 468.49H703.628C703.628 469.916 703.238 470.629 702.457 470.629L699.528 458.504H698.943V461.357H698.357L697.186 452.798L698.943 454.224V453.511C698.621 449.232 698.035 447.092 697.186 447.092L697.771 446.379V444.239H696.6V446.379H696.014V443.526L696.6 442.812H696.014L695.428 443.526V440.672H696.014L696.6 441.386H697.186L696.6 440.672V436.393L683.714 439.959V441.386L687.814 439.959L690.157 440.672L693.086 439.959V441.386C684.886 443.176 680.786 445.553 680.786 448.518C679.752 453.749 678.581 457.077 677.272 458.504V459.93H675.515L674.929 459.217H674.343V459.93L672.586 458.504L673.757 454.224H673.172C672 454.224 671.415 456.126 671.415 459.93L670.243 458.504L670.829 454.224L669.072 452.085L679.029 422.841H679.614C679.614 424.267 680.005 424.981 680.786 424.981L681.372 421.414L680.786 422.128H680.2V419.275L680.786 415.708L681.372 416.422H681.957L681.372 415.708V414.995L682.543 412.142H683.129L683.714 412.855H684.3V412.142C684.3 411.191 683.714 410.716 682.543 410.716L685.472 400.73H687.814L687.229 401.443V402.156C689.939 400.254 692.477 399.303 694.843 399.303ZM691.329 415.708L686.643 430.687H687.814C691.719 430.687 693.867 429.26 694.257 426.407L691.914 415.708H691.329ZM686.057 419.988L684.886 424.981L684.3 424.267H683.714L684.3 427.121H684.886L686.643 420.701V419.988H686.057ZM679.614 426.407L679.029 427.121V428.547H679.614L680.2 426.407H679.614ZM683.129 429.26L682.543 432.113H683.129L683.714 431.4V429.26H683.129ZM677.857 429.974L677.272 432.827H677.857L679.029 429.974H677.857ZM687.814 432.113V432.827H688.986C692.5 432.351 694.257 431.638 694.257 430.687H693.671L687.814 432.113ZM696.014 447.805H697.186V452.085H696.6L696.014 447.805ZM704.214 452.798V454.224L704.8 457.077H705.385V455.651L704.8 452.798H704.214ZM698.357 454.938V456.364L700.114 455.651V454.224L698.357 454.938Z" fill="#504B90"/>
<path d="M724.783 402.911L728.882 407.191C728.882 405.765 729.273 405.051 730.054 405.051H730.64L738.839 430.729V432.155H738.254L737.082 427.876H736.497V429.302L740.597 441.428H741.182C742.744 429.064 744.995 416.156 747.935 402.702L749.692 404.128L751.449 403.415L754.963 405.555V406.268C753.792 406.268 753.206 407.219 753.206 409.121H753.792L754.378 409.834H754.963L755.549 406.268H756.721V406.981L756.135 407.695L756.721 408.408V409.121C753.781 420.114 751.139 435.875 748.796 456.406H747.625L748.796 444.994C748.015 444.994 746.844 449.511 745.282 458.546C743.835 459.972 742.468 460.686 741.182 460.686V462.112H740.597C740.597 461.161 739.816 460.686 738.254 460.686V455.693C738.254 453.539 734.349 441.651 726.54 420.03H725.954C724.392 428.505 723.025 439.917 721.854 454.266L721.268 453.553C718.926 454.392 717.754 455.581 717.754 457.119H716.583C715.802 455.329 715.411 452.238 715.411 447.847H714.826V454.266H713.654L713.068 450.7C713.068 437.777 715.411 422.086 720.097 403.625L724.783 402.911ZM716.583 420.743V421.456L717.168 422.17L716.583 422.883V424.309H717.168L717.754 421.456L717.168 420.743H716.583ZM738.839 432.155C739.85 432.155 740.631 434.057 741.182 437.861V438.575H740.597L738.839 432.155ZM748.486 380.8L749.003 381.765L748.9 381.849L749.003 381.975H749.072L749.175 381.849L749.279 381.975V382.059C749.279 382.646 749.072 383.346 748.659 384.157C748.659 384.465 748.429 385.024 747.969 385.835H748.038L749.348 384.031H749.451V384.157L749.348 384.66C749.462 384.66 749.554 384.87 749.623 385.29C749.072 386.548 748.406 387.807 747.625 389.066L747.246 389.779L747.349 389.905H747.522C747.522 389.597 747.728 389.248 748.142 388.856H748.211V388.94C747.407 390.115 747.005 390.814 747.005 391.038L747.418 390.618H747.522V390.702C746.488 392.52 745.294 394.296 743.938 396.031L744.042 396.156V396.24C744.042 396.884 743.341 397.513 741.94 398.128L741.527 398.212C740.447 398.212 739.138 396.828 737.599 394.059L736.462 392.506C735.635 393.765 735.004 395.08 734.567 396.45L734.223 396.66H734.05L733.775 396.45H733.671C733.58 396.45 733.235 397.177 732.638 398.632L732.569 398.758H732.466C731.731 398.758 731.122 398.059 730.64 396.66C730.019 396.66 729.468 395.863 728.986 394.268C728.986 394.017 729.365 393.22 730.123 391.877L732.018 388.646C732.822 387.136 733.729 385.849 734.739 384.786H734.912C735.302 384.786 735.934 385.751 736.807 387.681C737.657 388.744 738.323 390.213 738.805 392.087L738.908 392.171H739.081C740.252 392.171 742.078 390.227 744.559 386.339C745.156 385.611 745.971 384.423 747.005 382.772L748.486 380.8Z" fill="#544C93"/>
<path d="M783.353 402.366C787.947 402.366 792.242 404.03 796.238 407.359L795.653 408.072V408.785L797.995 413.065H796.824L796.238 412.352H795.653L797.41 428.043H797.995C797.995 425.666 798.386 424.477 799.167 424.477V427.33C799.167 430.015 797.214 436.197 793.31 445.875H793.895C791.139 450.49 787.039 454.77 781.596 458.714L778.667 459.427H778.082C768.802 459.427 762.945 454.91 760.51 445.875L758.168 441.595L758.753 440.882L758.168 435.889V434.463C758.168 430.519 761.291 423.624 767.539 413.778V414.492C764.668 419.191 762.325 424.421 760.51 430.183V430.897H761.096C762.52 423.932 767.792 415.135 776.91 404.506L772.81 407.359H772.224C772.224 405.177 775.934 403.513 783.353 402.366ZM780.424 414.492L779.839 413.778V414.492L780.424 415.205L776.324 419.484C773.086 419.484 769.962 426.141 766.953 439.456C766.953 443.26 768.71 446.588 772.224 449.441H772.81C777.082 449.441 781.963 443.973 787.453 433.036C789.405 427.834 790.381 424.03 790.381 421.624V415.918C790.381 414.603 788.429 413.652 784.524 413.065H783.939L783.353 413.778H782.767V413.065L780.424 414.492ZM797.41 416.631H798.581V420.198H797.41V416.631ZM767.539 424.477L765.782 428.757H766.367L768.125 424.477H767.539ZM790.381 428.757L788.038 435.889H789.796L791.553 430.897L790.967 428.757H790.381ZM794.481 431.61L793.895 433.75V435.176H794.481L795.067 432.323V431.61H794.481ZM759.925 434.463V440.169H760.51V434.463H759.925ZM787.453 436.603L785.11 440.169H785.696L788.038 436.603H787.453ZM768.71 452.294V453.008L771.639 455.147V454.434L768.71 452.294Z" fill="#574E95"/>
</svg>
